<!DOCTYPE svg PUBLIC "-//W3C//DTD SVG 20010904//EN" "http://www.w3.org/TR/2001/REC-SVG-20010904/DTD/svg10.dtd">
<svg version="1.0" xmlns="http://www.w3.org/2000/svg" width="1011px" height="1011px" viewBox="0 0 10110 10110" preserveAspectRatio="xMidYMid meet">
<g id="layer1" fill="#4d4d4d" stroke="none">
 <path d="M75 7231 l-70 -16 -3 -420 -2 -420 71 -32 c39 -18 76 -30 80 -27 11 6 12 921 2 927 -5 2 -39 -4 -78 -12z"/>
 <path d="M9957 7233 c-10 -10 -8 -911 2 -917 4 -3 40 9 80 26 l71 32 0 421 0 422 -64 11 c-74 14 -80 14 -89 5z"/>
 <path d="M624 5635 c-16 -40 44 -486 97 -725 168 -762 498 -1437 997 -2040 180 -217 562 -581 742 -705 38 -27 41 -27 59 -11 11 10 32 36 48 58 l28 41 -35 26 c-479 363 -882 822 -1181 1346 -308 540 -519 1183 -584 1780 -9 83 -19 170 -23 195 l-7 45 -68 3 c-55 2 -68 0 -73 -13z"/>
 <path d="M9347 5643 c-3 -5 -10 -62 -17 -128 -120 -1255 -753 -2439 -1692 -3168 -65 -50 -118 -94 -118 -99 0 -16 72 -108 85 -108 7 0 35 16 62 37 301 228 654 584 890 898 364 485 649 1089 798 1690 73 296 123 598 127 785 l3 95 -67 3 c-36 2 -69 -1 -71 -5z"/>
 </g>
<g id="layer2" fill="#ffffff" stroke="none">
 <path d="M4260 7883 c-93 -17 -160 -57 -196 -118 l-24 -42 2 -739 3 -739 149 -3 c101 -2 153 1 162 9 12 10 14 117 14 640 0 616 0 629 20 649 11 11 28 20 38 20 22 0 95 -34 133 -60 l29 -21 2 -617 3 -617 174 -3 c119 -2 178 1 187 9 12 10 14 142 14 804 0 662 -2 794 -14 804 -9 8 -68 11 -187 9 l-174 -3 -3 -48 -3 -47 -46 35 c-75 57 -204 93 -283 78z"/>
 <path d="M3217 7844 c-4 -4 -7 -418 -7 -920 l0 -914 -182 -2 -183 -3 0 -160 0 -160 535 0 535 0 0 160 0 160 -182 3 -183 2 -2 918 -3 917 -161 3 c-88 1 -163 -1 -167 -4z"/>
 <path d="M5245 7838 c-3 -7 -4 -494 -3 -1083 l3 -1070 160 0 160 0 3 318 c1 174 4 317 6 317 2 0 23 -11 47 -25 94 -52 251 -69 364 -40 74 20 118 47 144 89 21 33 21 45 21 703 l0 670 -23 34 c-13 20 -47 46 -81 63 -49 26 -72 31 -153 34 -111 5 -184 -8 -265 -48 l-57 -28 -3 37 -3 36 -158 3 c-120 2 -159 0 -162 -10z m543 -256 c18 -24 18 -1051 -1 -1076 -11 -16 -23 -18 -68 -14 -30 3 -75 15 -101 26 l-48 21 0 505 0 505 30 16 c43 22 132 44 155 38 11 -3 26 -12 33 -21z"/>
 <path d="M6665 7836 c-151 -48 -278 -180 -315 -327 -7 -30 -10 -187 -8 -489 l3 -445 32 -68 c114 -241 394 -336 623 -211 110 60 204 186 230 307 6 31 9 147 8 292 l-3 240 -302 3 -303 2 0 158 c0 176 8 203 72 242 40 24 116 27 157 5 36 -18 81 -71 81 -95 0 -35 23 -41 161 -38 l134 3 -3 44 c-11 154 -151 322 -310 371 -74 23 -195 26 -257 6z m285 -1079 c0 -76 -4 -100 -22 -137 -31 -59 -66 -82 -130 -87 -63 -5 -112 17 -145 67 -20 29 -23 45 -23 141 l0 109 160 0 160 0 0 -93z"/>
 </g>
<g id="layer3" fill="#313131" stroke="none">
 <path d="M1605 8849 c-76 -22 -155 -120 -175 -217 -11 -55 -11 -72 6 -145 16 -71 19 -123 19 -382 0 -165 -6 -500 -14 -745 -11 -368 -11 -568 -1 -1169 8 -437 10 -795 5 -901 -14 -278 -13 -290 24 -343 39 -58 96 -105 141 -117 19 -6 122 -10 228 -10 245 0 271 10 355 130 l32 45 3 205 c3 168 0 231 -17 345 -58 398 -81 697 -88 1155 -8 522 13 892 75 1330 23 167 27 228 27 425 l0 230 -32 47 c-42 59 -94 102 -142 117 -45 13 -401 14 -446 0z"/>
 <path d="M8051 8846 c-48 -17 -106 -69 -138 -124 l-28 -47 -3 -308 c-3 -235 0 -336 12 -430 86 -671 88 -1415 5 -2143 -17 -151 -20 -228 -17 -485 l3 -304 27 -47 c35 -58 96 -111 147 -126 47 -15 392 -16 440 -2 78 22 159 109 176 187 3 18 1 94 -5 170 -10 107 -9 325 0 968 12 751 11 887 -5 1425 -18 607 -16 777 12 910 27 133 -8 246 -101 319 -21 17 -55 35 -75 41 -52 14 -408 11 -450 -4z"/>
 <path d="M1145 8584 c-40 -21 -66 -45 -59 -55 3 -5 10 -7 15 -4 5 4 9 -637 9 -1666 0 -1405 -2 -1670 -13 -1654 -9 11 -16 14 -20 8 -10 -16 69 -131 105 -153 26 -16 47 -20 98 -18 l65 3 5 1769 5 1768 -23 9 c-38 15 -154 10 -187 -7z"/>
 <path d="M8781 8586 c-8 -10 -10 -482 -9 -1777 l3 -1764 57 -3 c69 -4 104 12 147 67 l31 39 0 1687 c0 1045 3 1684 9 1680 5 -3 12 -1 15 3 7 12 -43 58 -77 71 -42 16 -162 14 -176 -3z"/>
 <path d="M9927 7613 c-4 -6 0 -18 7 -28 8 -11 16 -14 19 -8 4 6 0 18 -7 28 -8 11 -16 14 -19 8z"/>
 <path d="M145 7229 c-10 -26 -1 -909 10 -912 14 -3 19 903 5 917 -6 6 -11 4 -15 -5z"/>
 <path d="M9930 6021 c-6 -12 -6 -22 -1 -26 6 -3 15 3 21 14 6 12 6 22 1 26 -6 3 -15 -3 -21 -14z"/>
 <path d="M555 5881 c-6 -11 11 -236 19 -249 2 -4 62 -7 132 -7 l128 0 8 33 c5 18 7 76 6 130 l-3 97 -142 3 c-87 1 -144 -1 -148 -7z"/>
 <path d="M9267 5884 c-9 -9 -8 -154 1 -214 l7 -45 129 1 130 0 7 28 c4 16 9 74 11 130 l3 101 -141 3 c-77 1 -143 -1 -147 -4z"/>
 <path d="M2501 2156 c-7 -8 -8 -17 -3 -20 6 -3 15 1 21 8 7 8 8 17 3 20 -6 3 -15 -1 -21 -8z"/>
 </g>
<g id="layer4" fill="#0e0e0e" stroke="none">
 <path d="M1341 8576 c-8 -9 -10 -524 -9 -1772 l3 -1759 36 -3 c23 -2 43 3 58 15 44 36 49 239 30 1213 -9 453 -9 667 2 1080 25 927 19 1149 -34 1199 -33 30 -73 43 -86 27z"/>
 <path d="M8725 8576 c-45 -20 -62 -45 -73 -106 -22 -120 -24 -316 -7 -890 16 -538 17 -676 5 -1430 -13 -923 -9 -1060 31 -1093 15 -12 35 -17 63 -15 l41 3 0 1770 c0 1947 5 1790 -60 1761z"/>
 <path d="M1078 8521 c-76 -89 -147 -369 -176 -696 l-7 -80 -290 -5 c-322 -6 -319 -5 -391 -77 -74 -74 -71 -30 -69 -868 2 -835 -3 -777 72 -851 71 -71 83 -74 408 -74 l291 0 23 -147 c12 -82 38 -209 57 -283 35 -139 106 -306 124 -295 13 8 14 3401 1 3409 -5 4 -24 -11 -43 -33z"/>
 <path d="M8997 8543 c-11 -11 -8 -3371 3 -3378 39 -24 144 331 181 610 l12 95 292 0 291 0 52 26 c56 28 92 64 124 128 20 40 21 50 21 781 0 735 0 740 -21 781 -33 64 -68 100 -124 128 l-52 26 -278 0 -277 0 -5 33 c-3 17 -12 93 -21 167 -35 302 -101 528 -172 593 -11 9 -23 14 -26 10z"/>
 <path d="M7656 4931 c-4 -5 49 -120 116 -255 l123 -246 -188 -376 c-103 -206 -185 -379 -182 -385 4 -5 37 -9 75 -9 l69 0 51 93 c27 50 96 185 152 299 57 114 105 207 108 207 3 0 16 -25 29 -57 25 -60 256 -508 274 -529 10 -14 143 -18 150 -5 3 4 -138 291 -312 637 l-316 630 -72 3 c-39 2 -74 -2 -77 -7z"/>
 <path d="M3323 4446 c-101 -33 -204 -125 -252 -226 -23 -49 -26 -67 -26 -165 0 -101 2 -115 29 -170 40 -81 119 -158 203 -198 64 -30 75 -32 178 -32 99 0 116 3 168 27 32 15 84 52 116 83 209 199 155 528 -108 658 -59 29 -75 32 -166 34 -63 2 -116 -2 -142 -11z m243 -169 c60 -30 86 -58 113 -117 44 -97 23 -209 -54 -286 -59 -59 -114 -79 -204 -72 -212 15 -305 281 -151 430 83 80 193 97 296 45z"/>
 <path d="M4293 4441 c-101 -34 -189 -115 -240 -220 -25 -51 -28 -66 -28 -166 0 -100 2 -115 28 -167 117 -238 398 -315 609 -166 l28 19 2 -413 3 -413 75 0 75 0 0 765 0 765 -65 0 -65 0 -3 -43 -3 -43 -36 27 c-20 15 -62 38 -92 51 -72 29 -209 32 -288 4z m269 -168 c86 -47 135 -141 125 -243 -12 -138 -113 -229 -255 -230 -151 0 -257 105 -255 256 2 198 207 314 385 217z"/>
 <path d="M2155 4428 c-3 -7 -4 -328 -3 -713 l3 -700 193 -3 c144 -2 208 1 257 13 173 40 297 148 332 291 41 164 -36 351 -174 427 -78 42 -161 57 -320 57 l-143 0 -2 318 -3 317 -68 3 c-48 2 -69 -1 -72 -10z m440 -793 c84 -22 134 -59 168 -124 64 -128 11 -259 -132 -325 -38 -17 -70 -21 -188 -24 l-143 -4 0 246 0 246 118 0 c73 0 141 -6 177 -15z"/>
 <path d="M5787 4434 c-10 -10 -9 -1482 1 -1488 5 -3 155 185 333 416 178 232 342 446 365 475 l41 52 309 -402 c407 -530 424 -551 435 -540 5 5 8 313 7 749 l-3 739 -75 0 -75 0 -3 -534 -2 -533 -88 118 c-165 223 -495 639 -506 639 -6 0 -141 -170 -301 -378 l-290 -379 -5 534 -5 533 -65 3 c-36 2 -69 0 -73 -4z"/>
 <path d="M2594 2283 c-11 -16 -23 -35 -26 -43 -4 -8 -29 -43 -58 -78 -41 -51 -49 -66 -39 -78 20 -24 237 -167 383 -252 508 -297 1049 -479 1661 -559 204 -26 876 -26 1080 0 698 91 1295 310 1865 684 141 93 190 129 190 143 0 4 -19 27 -43 52 -23 25 -53 66 -66 92 -14 25 -30 51 -37 57 -9 7 -42 -10 -122 -66 -485 -333 -1055 -564 -1622 -659 -296 -49 -718 -69 -1010 -47 -725 55 -1379 279 -1980 679 -80 54 -147 98 -150 100 -4 1 -15 -10 -26 -25z"/>
 </g>
<g id="layer5" fill="#ce1701" stroke="none">
 <path d="M4401 8829 c-677 -16 -1660 -78 -1805 -115 -138 -34 -270 -144 -336 -278 -38 -76 -42 -94 -70 -296 -32 -235 -52 -422 -72 -660 -17 -211 -17 -1062 0 -1275 31 -378 91 -836 119 -908 60 -152 212 -289 363 -325 54 -13 417 -45 750 -67 1287 -82 2594 -70 3850 36 315 26 383 47 498 154 142 131 165 202 217 660 97 862 88 1543 -31 2430 -9 66 -25 147 -35 181 -50 164 -214 316 -379 353 -25 5 -155 19 -290 30 -911 76 -1824 103 -2779 80z m-31 -969 c75 -14 150 -51 192 -94 19 -19 38 -33 41 -29 4 3 7 30 7 60 l0 53 170 0 170 0 0 -795 0 -795 -170 0 -170 0 0 614 0 614 -48 30 c-54 35 -114 62 -137 62 -9 0 -30 -13 -46 -29 l-29 -29 0 -631 0 -631 -145 0 -145 0 0 733 c0 723 0 732 21 766 11 19 30 42 42 52 30 25 114 52 178 58 9 0 40 -4 69 -9z m-838 -947 l3 -918 183 -3 182 -2 0 -145 0 -145 -520 0 -520 0 0 145 0 145 183 2 182 3 3 918 2 917 150 0 150 0 2 -917z m2018 883 c0 -19 4 -37 9 -40 5 -3 35 7 67 23 83 41 155 54 266 49 77 -3 104 -9 151 -32 36 -17 63 -38 72 -56 13 -25 15 -126 15 -695 0 -599 -2 -670 -16 -695 -62 -104 -340 -121 -500 -30 -29 16 -55 26 -58 23 -3 -4 -6 -150 -6 -325 l0 -318 -145 0 -145 0 0 1065 0 1065 145 0 145 0 0 -34z m1372 14 c150 -46 275 -194 290 -345 l3 -30 -127 -3 c-123 -2 -128 -2 -128 18 0 24 -62 96 -101 116 -36 18 -112 18 -148 0 -35 -19 -89 -79 -96 -109 -3 -12 -4 -92 -3 -177 l3 -155 303 -3 302 -2 0 -238 c0 -181 -4 -252 -15 -297 -62 -235 -294 -371 -530 -310 -127 34 -221 112 -278 233 l-32 67 -3 445 c-2 305 1 459 8 490 60 239 310 375 552 300z"/>
 <path d="M5683 7614 c-29 -7 -71 -23 -93 -34 l-40 -20 0 -516 0 -515 58 -26 c31 -14 82 -28 113 -31 52 -4 57 -2 77 23 22 28 22 30 22 551 l0 523 -22 25 c-31 33 -53 37 -115 20z"/>
 <path d="M6617 6864 c-4 -4 -7 -57 -7 -118 0 -125 10 -152 73 -200 67 -51 154 -47 217 10 56 51 71 99 68 214 l-3 95 -171 3 c-93 1 -173 -1 -177 -4z"/>
 </g>

</svg>